<mxfile host="app.diagrams.net" agent="Mozilla/5.0 (Windows NT 10.0; Win64; x64) AppleWebKit/537.36 (KHTML, like Gecko) Chrome/132.0.0.0 Safari/537.36 OPR/117.0.0.0" version="26.2.14">
  <diagram name="PÃ¡gina-1" id="PkS2QFsgc2Ay57DBaGOu">
    <mxGraphModel dx="1420" dy="815" grid="1" gridSize="10" guides="1" tooltips="1" connect="1" arrows="1" fold="1" page="1" pageScale="1" pageWidth="827" pageHeight="1169" math="0" shadow="1">
      <root>
        <mxCell id="0" />
        <mxCell id="1" parent="0" />
        <mxCell id="0Jx2RYsjajPMxDJ18xMc-9" style="edgeStyle=orthogonalEdgeStyle;rounded=0;orthogonalLoop=1;jettySize=auto;html=1;exitX=0.5;exitY=1;exitDx=0;exitDy=0;entryX=0.5;entryY=0;entryDx=0;entryDy=0;" edge="1" parent="1" source="cVW43VXub12awFBa3Uo2-2" target="cVW43VXub12awFBa3Uo2-4">
          <mxGeometry relative="1" as="geometry" />
        </mxCell>
        <mxCell id="cVW43VXub12awFBa3Uo2-2" value="&lt;p style=&quot;margin:0px;margin-top:4px;text-align:center;&quot;&gt;&lt;b&gt;Alarm&lt;/b&gt;&lt;/p&gt;&lt;hr size=&quot;1&quot; style=&quot;border-style:solid;&quot;&gt;&lt;p style=&quot;margin:0px;margin-left:4px;&quot;&gt;- id: int&lt;/p&gt;&lt;p style=&quot;margin:0px;margin-left:4px;&quot;&gt;- name: string&lt;/p&gt;&lt;p style=&quot;margin:0px;margin-left:4px;&quot;&gt;- address: string&lt;/p&gt;&lt;p style=&quot;margin:0px;margin-left:4px;&quot;&gt;- props: AlarmProps&lt;/p&gt;&lt;hr size=&quot;1&quot; style=&quot;border-style:solid;&quot;&gt;&lt;p style=&quot;margin:0px;margin-left:4px;&quot;&gt;+ Alarm(int,string, string, AlarmProps):void&lt;/p&gt;&lt;p style=&quot;margin:0px;margin-left:4px;&quot;&gt;+ Alarm():void&lt;/p&gt;&lt;p style=&quot;margin:0px;margin-left:4px;&quot;&gt;+ GetName(): string&lt;/p&gt;&lt;p style=&quot;margin:0px;margin-left:4px;&quot;&gt;+ SetName(string): bool&lt;/p&gt;&lt;p style=&quot;margin:0px;margin-left:4px;&quot;&gt;+ GetAddress(): string&lt;/p&gt;&lt;p style=&quot;margin:0px;margin-left:4px;&quot;&gt;+ SetAddress(string): bool&lt;/p&gt;&lt;p style=&quot;margin:0px;margin-left:4px;&quot;&gt;+ GetProps(): AlarmProps&lt;/p&gt;&lt;p style=&quot;margin:0px;margin-left:4px;&quot;&gt;+ SetProps(AlarmProps):bool&lt;/p&gt;" style="verticalAlign=top;align=left;overflow=fill;html=1;whiteSpace=wrap;" parent="1" vertex="1">
          <mxGeometry x="20" y="20" width="240" height="240" as="geometry" />
        </mxCell>
        <mxCell id="0Jx2RYsjajPMxDJ18xMc-10" style="edgeStyle=orthogonalEdgeStyle;rounded=0;orthogonalLoop=1;jettySize=auto;html=1;entryX=0;entryY=0.5;entryDx=0;entryDy=0;" edge="1" parent="1" source="cVW43VXub12awFBa3Uo2-4" target="0Jx2RYsjajPMxDJ18xMc-3">
          <mxGeometry relative="1" as="geometry" />
        </mxCell>
        <mxCell id="cVW43VXub12awFBa3Uo2-4" value="AlarmProps" style="swimlane;fontStyle=1;align=center;verticalAlign=top;childLayout=stackLayout;horizontal=1;startSize=26;horizontalStack=0;resizeParent=1;resizeParentMax=0;resizeLast=0;collapsible=1;marginBottom=0;whiteSpace=wrap;html=1;" parent="1" vertex="1">
          <mxGeometry x="20" y="300" width="440" height="450" as="geometry">
            <mxRectangle x="440" y="120" width="100" height="30" as="alternateBounds" />
          </mxGeometry>
        </mxCell>
        <mxCell id="cVW43VXub12awFBa3Uo2-5" value="&lt;div&gt;- id: int&lt;/div&gt;&lt;div&gt;- startTime: string[]&lt;/div&gt;- sound: bool&lt;div&gt;- soundUrl: string&lt;/div&gt;&lt;div&gt;- vibration: bool&lt;/div&gt;&lt;div&gt;- vibrationType: string&lt;/div&gt;&lt;div&gt;- postpone: bool&lt;/div&gt;&lt;div&gt;- postponeProps: PostponeProps&lt;/div&gt;&lt;div&gt;- volume: double&lt;/div&gt;" style="text;strokeColor=none;fillColor=none;align=left;verticalAlign=top;spacingLeft=4;spacingRight=4;overflow=hidden;rotatable=0;points=[[0,0.5],[1,0.5]];portConstraint=eastwest;whiteSpace=wrap;html=1;" parent="cVW43VXub12awFBa3Uo2-4" vertex="1">
          <mxGeometry y="26" width="440" height="184" as="geometry" />
        </mxCell>
        <mxCell id="cVW43VXub12awFBa3Uo2-6" value="" style="line;strokeWidth=1;fillColor=none;align=left;verticalAlign=middle;spacingTop=-1;spacingLeft=3;spacingRight=3;rotatable=0;labelPosition=right;points=[];portConstraint=eastwest;strokeColor=inherit;" parent="cVW43VXub12awFBa3Uo2-4" vertex="1">
          <mxGeometry y="210" width="440" height="18" as="geometry" />
        </mxCell>
        <mxCell id="cVW43VXub12awFBa3Uo2-7" value="&lt;div&gt;+AlarmProps(String[], boo,string,bool,string,bool,PostponeProps,double):void&lt;/div&gt;&lt;div&gt;+AlarmProps():void&lt;/div&gt;&lt;div&gt;+GetStartTime():string[]&lt;/div&gt;&lt;div&gt;+SetStartTime(string[]):void&lt;/div&gt;+GetSound():bool&lt;div&gt;+SetSound(bool):void&lt;/div&gt;&lt;div&gt;+GetSoundUrl():string&lt;/div&gt;&lt;div&gt;+SetSoundUrl(string):void&lt;/div&gt;&lt;div&gt;+GetVibration():bool&lt;/div&gt;&lt;div&gt;+SetVibration(bool):void&lt;/div&gt;&lt;div&gt;+GetPostpone():bool&lt;/div&gt;&lt;div&gt;+SetPostPone(PostponeProps):void&lt;/div&gt;&lt;div&gt;+GetVolume():double&lt;/div&gt;&lt;div&gt;+SetVolume(double):void&lt;/div&gt;" style="text;strokeColor=none;fillColor=none;align=left;verticalAlign=top;spacingLeft=4;spacingRight=4;overflow=hidden;rotatable=0;points=[[0,0.5],[1,0.5]];portConstraint=eastwest;whiteSpace=wrap;html=1;" parent="cVW43VXub12awFBa3Uo2-4" vertex="1">
          <mxGeometry y="228" width="440" height="222" as="geometry" />
        </mxCell>
        <mxCell id="cVW43VXub12awFBa3Uo2-8" value="GeneralProps" style="swimlane;fontStyle=1;align=center;verticalAlign=top;childLayout=stackLayout;horizontal=1;startSize=26;horizontalStack=0;resizeParent=1;resizeParentMax=0;resizeLast=0;collapsible=1;marginBottom=0;whiteSpace=wrap;html=1;" parent="1" vertex="1">
          <mxGeometry x="640" y="20" width="160" height="110" as="geometry" />
        </mxCell>
        <mxCell id="cVW43VXub12awFBa3Uo2-9" value="+ theme: string" style="text;strokeColor=none;fillColor=none;align=left;verticalAlign=top;spacingLeft=4;spacingRight=4;overflow=hidden;rotatable=0;points=[[0,0.5],[1,0.5]];portConstraint=eastwest;whiteSpace=wrap;html=1;" parent="cVW43VXub12awFBa3Uo2-8" vertex="1">
          <mxGeometry y="26" width="160" height="26" as="geometry" />
        </mxCell>
        <mxCell id="cVW43VXub12awFBa3Uo2-10" value="" style="line;strokeWidth=1;fillColor=none;align=left;verticalAlign=middle;spacingTop=-1;spacingLeft=3;spacingRight=3;rotatable=0;labelPosition=right;points=[];portConstraint=eastwest;strokeColor=inherit;" parent="cVW43VXub12awFBa3Uo2-8" vertex="1">
          <mxGeometry y="52" width="160" height="8" as="geometry" />
        </mxCell>
        <mxCell id="cVW43VXub12awFBa3Uo2-11" value="+GetTheme():string&lt;div&gt;+SetTheme(string):void&lt;/div&gt;" style="text;strokeColor=none;fillColor=none;align=left;verticalAlign=top;spacingLeft=4;spacingRight=4;overflow=hidden;rotatable=0;points=[[0,0.5],[1,0.5]];portConstraint=eastwest;whiteSpace=wrap;html=1;" parent="cVW43VXub12awFBa3Uo2-8" vertex="1">
          <mxGeometry y="60" width="160" height="50" as="geometry" />
        </mxCell>
        <mxCell id="0Jx2RYsjajPMxDJ18xMc-3" value="&lt;p style=&quot;margin:0px;margin-top:4px;text-align:center;&quot;&gt;&lt;b&gt;PostponeProps&lt;/b&gt;&lt;/p&gt;&lt;hr size=&quot;1&quot; style=&quot;border-style:solid;&quot;&gt;&lt;p style=&quot;margin:0px;margin-left:4px;&quot;&gt;-id:int&lt;/p&gt;&lt;p style=&quot;margin:0px;margin-left:4px;&quot;&gt;-times:int&lt;/p&gt;&lt;p style=&quot;margin:0px;margin-left:4px;&quot;&gt;-timeWait:double&lt;/p&gt;&lt;hr size=&quot;1&quot; style=&quot;border-style:solid;&quot;&gt;&lt;p style=&quot;margin:0px;margin-left:4px;&quot;&gt;+PostponeProps(int,double):void&lt;/p&gt;&lt;p style=&quot;margin:0px;margin-left:4px;&quot;&gt;+Postpone():void&lt;/p&gt;&lt;p style=&quot;margin:0px;margin-left:4px;&quot;&gt;+GetTimes():int&lt;/p&gt;&lt;p style=&quot;margin:0px;margin-left:4px;&quot;&gt;+SetTimes(int):void&lt;/p&gt;&lt;p style=&quot;margin:0px;margin-left:4px;&quot;&gt;+GetTimes():int&lt;/p&gt;&lt;p style=&quot;margin:0px;margin-left:4px;&quot;&gt;+SetTimeWait(double):void&lt;/p&gt;&lt;p style=&quot;margin:0px;margin-left:4px;&quot;&gt;+GetTimeWait():double&lt;/p&gt;&lt;p style=&quot;margin:0px;margin-left:4px;&quot;&gt;&lt;br&gt;&lt;/p&gt;" style="verticalAlign=top;align=left;overflow=fill;html=1;whiteSpace=wrap;" vertex="1" parent="1">
          <mxGeometry x="600" y="425" width="180" height="200" as="geometry" />
        </mxCell>
        <mxCell id="0Jx2RYsjajPMxDJ18xMc-7" style="edgeStyle=orthogonalEdgeStyle;rounded=0;orthogonalLoop=1;jettySize=auto;html=1;exitX=0.5;exitY=1;exitDx=0;exitDy=0;" edge="1" parent="1" source="0Jx2RYsjajPMxDJ18xMc-3" target="0Jx2RYsjajPMxDJ18xMc-3">
          <mxGeometry relative="1" as="geometry" />
        </mxCell>
      </root>
    </mxGraphModel>
  </diagram>
</mxfile>
